<?xml version="1.0" encoding="UTF-8" standalone="no"?>
<!-- Created with Inkscape (http://www.inkscape.org/) -->

<svg
   xmlns:dc="http://purl.org/dc/elements/1.1/"
   xmlns:cc="http://creativecommons.org/ns#"
   xmlns:rdf="http://www.w3.org/1999/02/22-rdf-syntax-ns#"
   xmlns:svg="http://www.w3.org/2000/svg"
   xmlns="http://www.w3.org/2000/svg"
   xmlns:sodipodi="http://sodipodi.sourceforge.net/DTD/sodipodi-0.dtd"
   xmlns:inkscape="http://www.inkscape.org/namespaces/inkscape"
   id="svg2"
   version="1.1"
   inkscape:version="0.91 r13725"
   width="613.79999"
   height="294.60001"
   viewBox="0 0 613.79999 294.60001"
   sodipodi:docname="Allah-Muhammad.svg">
  <metadata
     id="metadata8">
    <rdf:RDF>
      <cc:Work
         rdf:about="">
        <dc:format>image/svg+xml</dc:format>
        <dc:type
           rdf:resource="http://purl.org/dc/dcmitype/StillImage" />
        <dc:title></dc:title>
      </cc:Work>
    </rdf:RDF>
  </metadata>
  <defs
     id="defs6" />
  <sodipodi:namedview
     pagecolor="#ffffff"
     bordercolor="#666666"
     borderopacity="1"
     objecttolerance="10"
     gridtolerance="10"
     guidetolerance="10"
     inkscape:pageopacity="0"
     inkscape:pageshadow="2"
     inkscape:window-width="1366"
     inkscape:window-height="715"
     id="namedview4"
     showgrid="false"
     inkscape:zoom="4.8093843"
     inkscape:cx="-805.39976"
     inkscape:cy="-38.449963"
     inkscape:window-x="-8"
     inkscape:window-y="22"
     inkscape:window-maximized="1"
     inkscape:current-layer="svg2" />
  <path
     style="fill:#008000"
     d="m -811.08972,312.31803 -0.14065,0.1565 c -0.0755,0.0856 -0.19631,0.28429 -0.27139,0.44176 -0.49192,1.03129 -0.52755,1.89761 -0.14065,3.47066 0.33638,1.36744 0.37274,1.54207 0.50318,2.46829 0.10388,0.73781 0.82676,5.66237 1.04001,7.08595 1.13985,7.61177 1.53008,10.5821 1.7274,13.0982 0.10251,1.3068 0.17184,1.66631 0.37045,1.94334 0.0609,0.0847 0.12447,0.13902 0.14065,0.12282 0.0162,-0.016 0.17918,-0.531 0.36251,-1.14699 l 0.33281,-1.11924 0,-1.23415 c 0,-0.93952 -0.0243,-1.3044 -0.10697,-1.54317 -0.29493,-0.85073 -0.91352,-5.24895 -2.03249,-14.4532 -0.22731,-1.86989 -0.42929,-3.51917 -0.44968,-3.66678 -0.0211,-0.1505 -0.008,-0.26742 0.0277,-0.26743 0.0723,0 0.92347,0.70859 0.96078,0.80031 0.013,0.0311 0.055,0.0574 0.0951,0.0574 0.11898,0 0.009,-0.79159 -0.20206,-1.44808 -0.10495,-0.32582 -0.64733,-1.52983 -1.20444,-2.67829 l -1.01228,-2.08794 z m -10.51897,1.78287 c -0.0417,0 -0.18849,0.11315 -0.32685,0.25159 -0.23956,0.23951 -0.25251,0.27446 -0.20009,0.72108 0.03,0.25818 0.13093,0.70635 0.21989,0.99445 0.19741,0.63937 0.20217,1.05665 0.0238,1.50356 -0.13481,0.33687 -0.13741,0.33866 -0.47147,0.28526 -0.64183,-0.10261 -0.81648,-0.42606 -0.91125,-1.69373 -0.0572,-0.76703 -0.14717,-1.1999 -0.34865,-1.66798 l -0.13074,-0.30508 -0.14264,0.18424 c -0.21677,0.279 -0.35565,0.78653 -0.30506,1.11924 0.0251,0.16471 0.10641,0.57536 0.18026,0.91521 0.1658,0.76305 0.11387,1.07532 -0.25158,1.47979 -0.50868,0.56299 -1.04749,0.65181 -1.26981,0.20999 -0.10041,-0.19952 -0.1215,-0.54992 -0.10498,-1.82646 0.0117,-0.88947 -0.0149,-1.60418 -0.0575,-1.63034 -0.21583,-0.13341 -1.1718,1.43641 -1.28962,2.11766 -0.0437,0.2514 -0.0282,0.30903 0.0792,0.30902 0.0794,0 0.13074,-0.0682 0.13074,-0.17035 0,-0.11836 0.047,-0.16181 0.1466,-0.14264 0.12017,0.0231 0.16121,0.1788 0.23574,0.93304 0.0494,0.49806 0.11518,0.99602 0.15055,1.10935 0.0872,0.27911 0.36436,0.57819 0.66362,0.71117 0.35429,0.15745 0.86762,0.13917 1.16085,-0.0396 0.13888,-0.0847 0.37384,-0.34598 0.52298,-0.57844 0.14915,-0.23245 0.28704,-0.41997 0.30507,-0.41997 0.0185,0 0.16383,0.14659 0.32488,0.32488 0.70086,0.77573 1.78732,0.41274 2.14143,-0.71316 0.11467,-0.3646 0.13396,-0.63458 0.0991,-1.29357 -0.0455,-0.8625 -0.43609,-2.68819 -0.57449,-2.68819 z m 4.47899,4.66719 c -0.002,4e-4 -0.004,0.001 -0.004,0.004 -0.10312,0.11802 -0.41137,1.0318 -0.54674,1.62837 -0.15797,0.69619 -0.13713,0.85574 0.37242,2.6446 0.2196,0.77058 0.50258,1.82813 0.62401,2.34944 0.6017,2.58184 0.95925,3.7813 1.95918,6.5491 l 0.208,0.57448 -0.24366,0.30705 c -0.329,0.41536 -1.14631,0.94931 -1.70363,1.11132 -0.57924,0.1684 -1.40264,0.11769 -1.9374,-0.11885 -0.46235,-0.20454 -1.27216,-0.95089 -1.62044,-1.49366 -0.63039,-0.9823 -1.11134,-2.69029 -1.44412,-5.11487 -0.41002,-2.98696 -0.46599,-3.34907 -0.62599,-4.07091 -0.20331,-0.91698 -0.4273,-1.59151 -0.73692,-2.20482 -0.26631,-0.52761 -0.71825,-1.08363 -0.82409,-1.01822 -0.1101,0.068 -0.31187,1.0947 -0.37243,1.8958 -0.0746,0.99047 0.0596,2.1602 0.49921,4.36804 0.19877,0.99727 0.40229,2.1911 0.44968,2.65649 0.22465,2.21037 -0.45301,4.30767 -1.74326,5.41201 -1.2702,1.0873 -3.06883,1.01252 -4.1957,-0.17234 -0.71945,-0.7564 -0.98721,-1.32225 -1.15293,-2.43659 -0.0767,-0.5139 -0.0589,-0.83967 0.1248,-2.28803 0.11756,-0.92892 0.26565,-2.18915 0.33281,-2.8011 0.13712,-1.25053 0.26225,-4.52266 0.18026,-4.73651 -0.0484,-0.12508 -0.0927,-0.11636 -0.45958,0.0832 -0.56274,0.30632 -1.27236,0.95532 -1.64817,1.5095 -0.88003,1.29798 -1.32872,2.70175 -1.98692,6.20442 -0.64678,3.44167 -1.02893,4.53408 -1.83241,5.22185 -0.50304,0.43059 -0.87455,0.36516 -1.4778,-0.2615 -0.56082,-0.58259 -1.00413,-1.70716 -1.24999,-3.15965 -0.14157,-0.83665 -0.29796,-3.03463 -0.29913,-4.22937 0,-0.71514 7.3e-4,-0.72471 -0.18621,-0.66958 -0.10198,0.0308 -0.21827,0.0844 -0.25753,0.12084 -0.22443,0.20823 -0.32744,5.13903 -0.13867,6.59071 0.20127,1.54718 0.58196,2.73299 1.11331,3.45679 0.9346,1.27317 2.23121,1.42422 3.29635,0.38432 0.95988,-0.93712 1.31866,-2.0663 1.76901,-5.57248 0.30866,-2.40329 0.51894,-3.50318 0.87954,-4.6137 0.3038,-0.93541 0.45034,-1.21 0.79833,-1.48374 l 0.22386,-0.17434 0,0.19018 c 0,0.10528 -0.0556,0.65365 -0.12283,1.22028 -0.48823,4.09028 -0.48436,6.26439 0.0139,7.98729 0.51217,1.77194 1.56211,2.84476 3.11013,3.18145 2.47799,0.53896 4.35436,-1.05383 5.46155,-4.63548 0.12938,-0.41863 0.26014,-0.76198 0.28922,-0.76268 0.0291,-6.6e-4 0.20694,0.35836 0.3962,0.80032 0.59425,1.38821 0.91645,1.98153 1.27377,2.33359 0.82353,0.81156 1.61788,1.15862 2.76741,1.21235 0.65144,0.0305 0.87553,0.01 1.32132,-0.14065 1.10457,-0.37022 1.87441,-1.07364 2.38707,-2.17115 0.50363,-1.07823 0.60887,-1.5792 0.6141,-2.94372 0.009,-1.49197 -0.11216,-2.07606 -0.83201,-4.16005 -0.87121,-2.52237 -1.28961,-3.8372 -1.24009,-3.88668 0.0252,-0.0254 0.23233,0.0605 0.45959,0.1882 0.22734,0.12777 0.43358,0.2103 0.46157,0.18225 0.0931,-0.0934 -0.38259,-1.33428 -0.95483,-2.48018 -0.6495,-1.30043 -1.41885,-2.57671 -1.54318,-2.56734 l -0.004,0 -0.002,0 z"
     id="path4278"
     inkscape:connector-curvature="0"
     inkscape:export-filename="C:\Users\z\Desktop\hadis\img\allah.png"
     inkscape:export-xdpi="90"
     inkscape:export-ydpi="90" />
  <rect
     style="fill:none;fill-opacity:1"
     id="rect4205"
     width="32"
     height="32"
     x="-771.19366"
     y="308.61929"
     inkscape:export-filename="C:\Users\z\Desktop\hadis\img\muhammad.png"
     inkscape:export-xdpi="90"
     inkscape:export-ydpi="90" />
  <path
     style="fill:#008000"
     d="m -760.15632,312.68565 c -0.0599,-0.0109 -0.0889,0.0907 -0.11719,0.27343 -0.0246,0.15818 -0.11799,0.56788 -0.20898,0.91016 l -0.16602,0.62109 0.40235,1.375 c 0.53964,1.84091 0.68391,2.43187 1.08203,4.41993 0.41288,2.06171 0.67499,3.80001 0.72656,4.83789 l 0.0371,0.77734 -0.4375,0.54297 c -0.56875,0.70188 -2.22393,2.31486 -2.95899,2.88476 -1.86081,1.44277 -3.84292,2.56459 -5.125,2.9004 -1.42494,0.37323 -3.05636,-0.0145 -3.48046,-0.82618 -0.12262,-0.23471 -0.15731,-0.43078 -0.17969,-1.01757 -0.043,-1.12796 0.2373,-2.10822 1.18164,-4.13477 0.24023,-0.51552 0.42572,-0.97089 0.41211,-1.01172 -0.0688,-0.20652 -1.05468,1.65846 -1.54297,2.91797 -0.78104,2.01463 -0.87738,3.93874 -0.25781,5.19727 0.3511,0.71319 0.82423,1.02498 1.7832,1.17968 1.76502,0.28473 3.65482,-0.51102 6.62109,-2.78906 2.06504,-1.58591 3.07788,-2.75291 4.15625,-4.7832 0.47054,-0.8859 0.41731,-0.93942 0.5918,0.58398 0.26838,2.34297 1.17519,4.58259 2.39258,5.91016 0.69801,0.76119 1.91281,1.64115 2.88086,2.08594 0.64108,0.29456 2.05001,0.77348 2.67969,0.91015 0.24193,0.0525 0.59892,0.0978 0.79297,0.10156 0.30043,0.006 0.36604,-0.0149 0.43554,-0.14453 0.10388,-0.19368 0.10377,-1.79087 0,-1.89453 -0.0398,-0.0398 -0.41021,-0.17541 -0.82422,-0.30078 -1.21493,-0.36787 -2.0544,-0.85985 -2.53125,-1.48437 -0.29175,-0.3821 -0.66841,-1.15989 -0.62109,-1.28321 0.0955,-0.24881 1.604,-1.10608 2.83398,-1.61133 1.00085,-0.41112 2.51017,-0.84133 5.02344,-1.43164 2.04747,-0.48091 3.79599,-0.98469 4.51367,-1.29882 0.37435,-0.16385 0.39085,-0.18177 0.52344,-0.58399 0.14503,-0.43995 0.34375,-1.32214 0.34375,-1.5293 0,-0.10784 -0.0327,-0.11539 -0.25391,-0.0664 -0.26616,0.0589 -1.76386,0.16185 -3.875,0.26758 -3.3486,0.1677 -11.10216,-0.0445 -11.36132,-0.31055 -0.1174,-0.12053 1.55764,-1.29966 2.70703,-1.90625 1.38933,-0.73321 3.52017,-1.59869 3.84375,-1.56055 0.12798,0.0151 0.18759,0.0761 0.23437,0.24024 0.0893,0.31333 0.17774,0.27283 0.17774,-0.082 0,-0.24068 0.0318,-0.32401 0.15429,-0.4043 0.0848,-0.0556 0.76834,-0.25143 1.51953,-0.43555 0.75118,-0.18412 1.396,-0.35372 1.4336,-0.37695 0.0891,-0.0551 0.3115,-0.55467 0.51953,-1.16992 0.19146,-0.56623 0.18522,-0.58972 -0.32617,-1.24805 -0.74584,-0.96014 -1.75835,-1.89981 -2.21289,-2.05078 -0.17977,-0.0597 -0.59401,-0.11014 -0.95703,-0.11719 -0.72198,-0.014 -1.00507,0.0884 -1.39258,0.5 -0.42478,0.4512 -0.53308,0.76 -0.52735,1.51172 0.004,0.58624 0.0357,0.75754 0.22657,1.28516 0.1212,0.33498 0.23567,0.65794 0.2539,0.71679 0.0244,0.0786 -0.0804,0.15583 -0.39453,0.29492 -1.74806,0.77383 -3.42842,1.62113 -4.11719,2.07618 -1.41553,0.93522 -2.68161,2.4702 -3.04882,3.69726 -0.1009,0.33718 -0.22403,0.34381 -0.25196,0.0117 -0.0588,-0.69924 -0.52696,-4.26247 -0.69726,-5.30859 -0.48153,-2.95792 -1.10002,-5.11319 -1.92969,-6.73242 -0.40358,-0.78764 -0.58769,-1.11859 -0.6875,-1.13672 z m 6.95508,3.61523 c -0.0277,0 -0.12667,0.0759 -0.21875,0.16797 -0.15941,0.15938 -0.16771,0.18328 -0.13281,0.48047 0.02,0.17181 0.0873,0.47041 0.14648,0.66211 0.13136,0.42547 0.13627,0.70066 0.0176,0.99805 -0.0897,0.22417 -0.0941,0.22693 -0.31641,0.1914 -0.42711,-0.0683 -0.54241,-0.28536 -0.60547,-1.1289 -0.0381,-0.51041 -0.0983,-0.79596 -0.23242,-1.10743 l -0.0859,-0.20312 -0.0957,0.12109 c -0.14425,0.18567 -0.23678,0.52273 -0.20312,0.74414 0.0167,0.10959 0.072,0.38519 0.12109,0.61133 0.11032,0.50775 0.0732,0.71328 -0.16992,0.98242 -0.33849,0.37463 -0.69582,0.43463 -0.84375,0.14063 -0.0668,-0.13276 -0.0813,-0.36735 -0.0703,-1.2168 0.008,-0.59188 -0.008,-1.06658 -0.0371,-1.08398 -0.14361,-0.0888 -0.77903,0.95682 -0.85743,1.41015 -0.0291,0.16729 -0.0207,0.20508 0.0508,0.20508 0.0529,0 0.0879,-0.0453 0.0879,-0.11328 0,-0.0788 0.0312,-0.1065 0.0977,-0.0937 0.08,0.0154 0.10666,0.11724 0.15625,0.61914 0.0329,0.33142 0.078,0.66483 0.10156,0.74023 0.0581,0.18573 0.24228,0.38221 0.44141,0.47071 0.23576,0.10477 0.57635,0.0936 0.77149,-0.0254 0.0924,-0.0564 0.25036,-0.23008 0.3496,-0.38477 0.0992,-0.15468 0.18918,-0.2793 0.20118,-0.2793 0.0123,0 0.10962,0.0962 0.21679,0.21485 0.46638,0.51619 1.18818,0.27655 1.42383,-0.47266 0.0763,-0.24261 0.0897,-0.42283 0.0664,-0.86133 -0.0303,-0.57393 -0.28876,-1.78906 -0.38086,-1.78906 z m 5.16406,1.14063 c 0.73045,0 1.01404,0.11528 1.60547,0.64843 0.35989,0.32443 0.3666,0.33387 0.23437,0.44141 -0.0744,0.0605 -0.30075,0.18705 -0.50195,0.28125 -0.23061,0.10796 -0.53365,0.18471 -0.81836,0.20508 l -0.45117,0.0312 -0.31641,-0.4961 c -0.31025,-0.48494 -0.50353,-0.97888 -0.41601,-1.0664 0.0241,-0.0242 0.32288,-0.0449 0.66406,-0.0449 z m -8.69922,9.28515 0.42969,0.0449 c 1.05735,0.11189 3.16277,0.24359 5,0.3125 1.098,0.0412 2.19159,0.0925 2.43164,0.11329 l 0.4375,0.0371 -1.21484,0.61914 c -1.41075,0.71908 -1.68853,0.90065 -2.20508,1.44336 -0.44081,0.46312 -0.83447,1.22884 -1.10938,2.15429 -0.0995,0.33498 -0.2169,0.71874 -0.25976,0.85352 l -0.0781,0.24414 -0.47265,-0.37695 c -1.11514,-0.89058 -1.91026,-1.88088 -2.28516,-2.84376 -0.2001,-0.51391 -0.53125,-1.73473 -0.625,-2.30468 l -0.0488,-0.29688 z"
     id="path4188"
     inkscape:export-filename="C:\Users\z\Desktop\hadis\img\muhammad.png"
     inkscape:export-xdpi="90"
     inkscape:export-ydpi="90"
     inkscape:connector-curvature="0" />
  <rect
     style="fill:none;fill-opacity:1"
     id="rect4205-6"
     width="32"
     height="32"
     x="-839.16541"
     y="310.7132"
     inkscape:export-filename="C:\Users\z\Desktop\hadis\img\allah.png"
     inkscape:export-xdpi="90"
     inkscape:export-ydpi="90" />
</svg>
