<?xml version="1.0" encoding="UTF-8" standalone="no"?>
<!-- Created with Inkscape (http://www.inkscape.org/) -->

<svg
   xmlns:dc="http://purl.org/dc/elements/1.1/"
   xmlns:cc="http://creativecommons.org/ns#"
   xmlns:rdf="http://www.w3.org/1999/02/22-rdf-syntax-ns#"
   xmlns:svg="http://www.w3.org/2000/svg"
   xmlns="http://www.w3.org/2000/svg"
   xmlns:sodipodi="http://sodipodi.sourceforge.net/DTD/sodipodi-0.dtd"
   xmlns:inkscape="http://www.inkscape.org/namespaces/inkscape"
   width="9.0311108mm"
   height="9.031271mm"
   viewBox="0 0 32 32.000569"
   id="svg2"
   version="1.1"
   inkscape:version="0.91 r13725"
   sodipodi:docname="fav.svg"
   inkscape:export-filename="C:\Users\z\Desktop\hadist\img\fav.png"
   inkscape:export-xdpi="90"
   inkscape:export-ydpi="90">
  <defs
     id="defs4" />
  <sodipodi:namedview
     id="base"
     pagecolor="#ffffff"
     bordercolor="#666666"
     borderopacity="1.0"
     inkscape:pageopacity="0.0"
     inkscape:pageshadow="2"
     inkscape:zoom="5.12"
     inkscape:cx="36.845229"
     inkscape:cy="-7.9568914"
     inkscape:document-units="px"
     inkscape:current-layer="layer1"
     showgrid="false"
     fit-margin-top="0"
     fit-margin-left="0"
     fit-margin-right="-0.4"
     fit-margin-bottom="-0.7"
     inkscape:window-width="1366"
     inkscape:window-height="715"
     inkscape:window-x="-8"
     inkscape:window-y="22"
     inkscape:window-maximized="1" />
  <metadata
     id="metadata7">
    <rdf:RDF>
      <cc:Work
         rdf:about="">
        <dc:format>image/svg+xml</dc:format>
        <dc:type
           rdf:resource="http://purl.org/dc/dcmitype/StillImage" />
        <dc:title></dc:title>
      </cc:Work>
    </rdf:RDF>
  </metadata>
  <g
     inkscape:label="Layer 1"
     inkscape:groupmode="layer"
     id="layer1"
     transform="translate(2456.4809,887.87449)">
    <path
       id="path4237-7"
       style="color:#000000;font-style:normal;font-variant:normal;font-weight:normal;font-stretch:normal;font-size:medium;line-height:normal;font-family:sans-serif;text-indent:0;text-align:start;text-decoration:none;text-decoration-line:none;text-decoration-style:solid;text-decoration-color:#000000;letter-spacing:normal;word-spacing:normal;text-transform:none;direction:ltr;block-progression:tb;writing-mode:lr-tb;baseline-shift:baseline;text-anchor:start;white-space:normal;clip-rule:nonzero;display:inline;overflow:visible;visibility:visible;opacity:1;isolation:auto;mix-blend-mode:normal;color-interpolation:sRGB;color-interpolation-filters:linearRGB;solid-color:#000000;solid-opacity:1;fill:#008000;fill-opacity:1;fill-rule:nonzero;stroke:none;stroke-width:52.04361725;stroke-linecap:butt;stroke-linejoin:miter;stroke-miterlimit:4;stroke-dasharray:none;stroke-dashoffset:0;stroke-opacity:1;color-rendering:auto;image-rendering:auto;shape-rendering:auto;text-rendering:auto;enable-background:accumulate"
       d="m -2440.4811,-887.87449 c -3.2468,0 -6.2697,0.98226 -8.7977,2.65658 -0.044,0.0294 -0.092,0.0534 -0.136,0.0832 -0.4258,0.28806 -0.837,0.59605 -1.2324,0.92261 -0.3954,0.32658 -0.775,0.67173 -1.1372,1.03409 -0.3624,0.36235 -0.7076,0.74191 -1.0343,1.13732 -0.3266,0.39538 -0.6346,0.80657 -0.9226,1.23232 -0.072,0.1062 -0.132,0.2209 -0.2002,0.32878 -1.5992,2.48937 -2.5394,5.43887 -2.5394,8.60539 0,3.16664 0.9404,6.11626 2.5394,8.60569 0.07,0.1078 0.128,0.2225 0.2002,0.3285 0.288,0.42573 0.596,0.83691 0.9226,1.23232 0.3267,0.3954 0.6719,0.77497 1.0343,1.13731 0.3622,0.36235 0.7418,0.70751 1.1372,1.03408 0.3954,0.32658 0.8066,0.63454 1.2324,0.92263 0.044,0.0298 0.092,0.0538 0.136,0.0832 2.528,1.6743 5.5509,2.65655 8.7977,2.65655 8.8099,0 16.0002,-7.19025 16.0002,-16.0002 0,-8.80996 -7.1903,-16.00021 -16.0002,-16.00021 z m 0,4.51108 c 6.3721,0 11.4892,5.11715 11.4892,11.48913 0,6.372 -5.1171,11.48914 -11.4892,11.48914 -0.5422,0 -1.0708,-0.0498 -1.5924,-0.1216 -0.2448,-0.0336 -0.4912,-0.062 -0.7307,-0.1108 -0.3749,-0.0762 -0.7429,-0.1704 -1.1034,-0.28194 -0.3603,-0.1114 -0.7129,-0.24004 -1.0568,-0.38487 -0.344,-0.1448 -0.6794,-0.30578 -1.005,-0.4821 -0.3258,-0.1764 -0.6418,-0.36795 -0.9472,-0.57387 -0.144,-0.097 -0.2772,-0.20758 -0.4164,-0.31086 0,0 0,0 0,0 -2.814,-2.08887 -4.637,-5.42837 -4.637,-9.22318 0,-3.79479 1.823,-7.13415 4.637,-9.22302 0.14,-0.1034 0.2726,-0.21396 0.4166,-0.31102 0.3054,-0.2059 0.6214,-0.39741 0.947,-0.57371 0.3258,-0.1764 0.6612,-0.33742 1.005,-0.48225 0.344,-0.1448 0.6967,-0.27344 1.057,-0.38488 0.3603,-0.1114 0.7285,-0.20576 1.1032,-0.28194 0.2397,-0.0486 0.4861,-0.077 0.7309,-0.1108 0.5216,-0.0718 1.0502,-0.1216 1.5924,-0.1216 z m -1.5924,0.12161 c -0.2448,0.0336 -0.4912,0.062 -0.7307,0.1108 -0.3749,0.0762 -0.7429,0.1704 -1.1034,0.28194 -0.3603,0.1114 -0.7129,0.24006 -1.0568,0.38488 -0.344,0.14481 -0.6794,0.30593 -1.005,0.48225 -0.3258,0.1764 -0.6418,0.36781 -0.9472,0.57371 -0.144,0.097 -0.2774,0.2077 -0.4166,0.31102 4.7801,0.93591 8.2391,4.76212 8.2391,9.22302 0,4.46086 -3.459,8.28718 -8.2389,9.22318 0.14,0.1032 0.2724,0.21384 0.4164,0.31086 0.3054,0.20592 0.6214,0.39756 0.9472,0.57387 0.3256,0.1764 0.661,0.33728 1.005,0.48211 0.3439,0.1448 0.6965,0.27342 1.0568,0.38486 0.3605,0.1114 0.7285,0.20576 1.1034,0.28194 0.2395,0.0486 0.4859,0.077 0.7307,0.1108 4.1039,-2.33912 6.8923,-6.51978 6.8923,-11.36754 0,-4.84774 -2.7884,-9.02842 -6.8923,-11.36754 z"
       inkscape:connector-curvature="0"
       inkscape:export-xdpi="90"
       inkscape:export-ydpi="90" />
  </g>
</svg>
