<svg xmlns="http://www.w3.org/2000/svg" viewBox="0 0 100 84.9"><path fill="green" d="M46.2 84.6c-.4-.2-.4-.3 0-.4.4-.2 1-.3 1.3-.3 1 0 5-1.6 9.3-3.7 4.3-2 5-2.3 7-2 .8.3 1 .3 1.6-.7.5-.8.6-1 .8-.5 0 .4.6.6 1.4.6 1 0 1 0 1-.6 0-.4.5-1 .8-1 .6-.4.7-.4.6.2l-.4 1.5c-.4 1.4-1.3 2-2.7 1.8-1-.2-1.4 0-1.6.2-.2.3-1 .4-3 .3-2.4 0-2.5 0-5.5 1.6-2 1.2-4 2-6.2 2.5-3.4 1-4 1-4.6.6zM84 80.2c-6.2-.8-6.7-1.7-1-1.7 3.3 0 3.7 0 5.5-1 2.7-1.4 6.5-4.8 8.2-7.2 1.6-2.5 1.8-3.4.3-2.2-1.3 1.2-3 1.5-4.7 1-2-.8-2.8-2-2.7-4.5 0-3.8 2-7.3 4.6-8.2 1-.3 1.4-.3 2.4.2 1.7.8 2.6 2.4 3 5 1 4.5.2 8.3-2 12C96 76 93 79.2 91.3 80c-1.3.7-4 .7-7.4.2zM96 63.5C97 62.3 94 61 92.8 62c-.5.6-.5 2 0 2 1 .5 3 0 3.4-.5zm-95 15.7c.8-.7 2.6-1.7 4.2-2.4 5-2.2 7.8-4.2 8.4-6.4.6-2 1.8-3.3 4.8-4.7 2.8-1.4 3.5-2 5-4.2.8-1.2 1-1.7 1-4.4 0-2.5-.2-3-.7-3.5L22 52c-.8-.8-1.8-2.3-3-4.8L17.2 44l-1 1.8c-1 1.4-1.2 1.4-4 2-3.7.7-5.5.7-6 0-.4-.5-.4-.8.3-2 2-3.6 4.4-6 7.5-7.7l1.4-.6V35c.2-1.5.4-2.5.8-2.8.4-.5.5-.4 1 1.2.5 2.7.7 3 1.8 2 1-1 2.8-2 3.3-2s0 .8-1.8 2.7l-2 2.3 1 2.3c1 3 2.3 5 3.4 6 1 1 1 1 .5-1.7-.5-2.3 0-5 1-7.3.6-1.3.7-1.4 1-1l.6 6 .7 5.7c1 .8 8 2 12.7 2 8.8 0 15-1.5 19.2-4.4 1.6-1 2-1 1.5.8-.2.7 0 1 .7 1.3 1.5 1 3.2 1 4.6.6 1-.3 1.3-.7 1.8-1.7 1-2 1-3.8-.5-10.3L65.3 31l-2 .2-3.7.2c-1 0-1.6-.3-3.3-2l-2-2.2-.5.8-2 2.4-1.4 1.7c0 .2.6.3 1.3.3 1.5 0 4 .8 4.8 1.6.7.5.8 2.3 0 3.8-.6 1.7-4 4.4-7.2 6-3.7 1.8-6 2.3-9.5 2.3-2.5 0-3 0-4.8-.8-1.3-.7-2.2-1.4-2.8-2.3-.8-1.3-1-1.7-1-4.3.2-3.3.8-5.2 2.7-7 1.2-1.5 2-1.8 1.3-.6-.6 1-1.5 4.2-1.5 5.4 0 1.7 1 3.2 2.5 4 1.4.6 2 .7 5.4.5 3.3-.2 4.3-.4 6.7-1.3 3.5-1.3 5-2.2 5-3 0-.8-.6-1-4.8-1.2-3 0-3.8-.4-3.8-1.2 0-1.3.8-2.3 2.8-3.5 2.2-1.2 4-3 4.6-4.4.5-1.4.4-9-.3-14-.7-4.7-.6-6.7.5-9l.7-1.5.3 1.7C55 14.4 56.2 21 56.5 22c.4 1.3 1.7 3 3 3.5 1 .6 4 1 4.6.6.4-.2.5-.6 0-2.6-.4-3.5-.3-4.7.7-7s1.7-2.4 1.7-.3c0 4 1.3 9 2.3 8.5 3-1 3.8-1.2 6-1 2 .4 2.3.4 3.2-.3 8-6.4 9.5-7.3 13-7.2 3.5 0 5.2 1.5 5 4.4-.2 1.8-1.6 4-3.8 5.6-2.5 2-7.6 3.4-13.3 3.5h-3.7L74 31c-.8.7-1.4 1-1.5 1 0 0 0-.8.4-1.6.4-1.4.4-1.5 0-2.3-1.2-1.8-1.7-1.8-3.2-.2l-1.4 1.4.8 6.3c1 7.7 1.6 9.4 3 10.7 1 1 2.5 1.6 5.8 2h2l-.6-1c-1.2-2.4-1.2-3.2 0-5.5 2.2-4 5.3-5.3 9.7-3.5 2 .7 3.4 2 3 2.3l-2.4-.2C88 40 87 40 86 40.3c-1.6.4-4.6 2-4.6 2.4 0 .5 1.5 2.4 2.4 3 2.7 1.6 5.8 1 8.6-1.5 1-1 1.8-1.5 2-1.5.2 0-.6 3.3-1.2 4.7-.3.8-4.5 3.8-6.2 4.4-2.5 1-7 1.8-9.2 1.8-3.2 0-5-.8-7-3L69 49l-1.7 1.8c-1.6 1.7-1.8 1.8-3 1.6-1.3-.2-2.8-1-4-2.4l-1-1-1.5 1.3c-2 1.7-4.8 3-8.5 4.2-2.6.8-3.4 1-8 .8-2.7 0-6.7-.2-8.8-.5l-4.3-.5c-1 0 0 5.3 1.2 8 1.6 3 5 5.3 10 6.4 5.7 1.2 16.3 1 23-.3 3-.6 7-2.2 8-3 .5-.8.7-1 1.3-.5.3 0 .3.4 0 1.5l-.7 1.2h2.2c2.7-.4 5-1.4 5.7-2.7 0-.5.6-1 1-1 .3-.3.2 0-.3 1.2s-.6 1.6-.2 1.8c.7.5 2.7 1 3.8 1 1.2 0 1.4-.5.8-1.6-.3-.8 2-5 2.4-4.4.5.8.4 5-.2 7-.5 1.7-2 3.3-3.2 3.3-.4 0-1.7-.4-3-.8l-2-.7-2.7 1c-3 1-5.2 1-7 .5-1-.4-1.5-.3-5 .6-5.6 1.5-9.6 2-16.2 2-7.8 0-11-.5-14.2-2-2.7-1.4-4.5-4.3-6-9.8-.2-1.2-.6-2.2-.7-2.2l-.7 1-2 2.2c-1 1.2-1.2 1.6-1 2 1.3 1.7 2.5 4 2.7 5 .7 3.6-3 5-8.2 3.5-2.2-.7-2.7-.7-2.7 0 0 .6-2.2 2.8-3.3 3.3-1 .3-5.5 1.5-7.4 1.8L1 80l-1 .3 1.3-1zm21-8.8c0-.6-1.8-1.4-3.7-1.7-1.8-.2-2 0-1 1 1.2 1.2 4.2 1.6 4.6.7zM13.5 43c2.8-.6 3.3-1 3-2.3-.2-1.6-.5-2-1.8-1.2-1.7 1-4.2 2.8-4.4 3.3-.3.6.6.7 3.2.2zm72-18.7c3.4-.4 6-1.3 5.7-2.2 0-.7-1.5-1.3-3.4-1.3-2 0-5.3 1.4-6.8 3l-1 1h1.2l4-.4zM45 64L43 63c-.2 0 2.8-4.3 3-4.4l2.6.7 2.2.6 1.2-1.2 1.2-1.2 3 1c1.5.7 2.8 1.3 2.7 1.4L57 62l-1.5 1.8-2.4-.6-2.3-.6-1.3 1.2c-.6.6-1.4 1.2-1.6 1l-2.7-.7zM16.8 27.5c-.3-.4-.8-1.6-1-2.8-.5-2.3-.8-2.4-2.2-1-1 1.2-2.6 1.6-5.5 1.5-2.7 0-3-.3-2.2-2.8.7-2 2-4 3-4.7.5-.2 2.2-1 4-1.5l3-1 .2-1.4c.3-2.2.4-2.5 1.3-3l.8-.6v2l-.3 2 .8-.3 1.4-1c.7-.6 1-.2.6 1-.2.4-1 1.2-1.8 1.7l-1.5 1v2c.2 3.7 1.7 5 5.2 4.3 4.3-.8 6-3.3 5.3-7.5-.2-1-.5-2.3-.7-2.6-.4-.8.8-5.2 1.5-5.2.4 0 1.5 4 2 7.4.4 3.7 1 5 2.3 6 1 .7 3.7 1 4.3.4.5-.5 0-3-1.7-7.2-.6-1.8-1.2-3.5-1.2-4 0-.8 1.7-4 2-3.8.2 0 .5.8.6 1.6 0 .8.7 3 1.3 4.7.8 3 1 3.8 1 7 0 4.2-.6 5.8-2.6 7-2 1.5-4.8.4-6.7-2.5l-1-1.6-1 1.7c-1.2 2.8-3.7 4-8 4-2 0-2.6 0-3-.6zm-2.5-7.6c.3 0 .6-.5.7-1 0-.4.2-1 .4-1.3.2-.5 0-.5-1-.3-1.6.3-5.6 2-5.6 2.5s3.6.7 5.4 0zM44.8 27C44.5 26 43 11.4 43 8.5c0-2 1-5.3 1.4-5.6.6-.5 1.4 3.2 1.7 7.5l.7 8c.4 3.8 0 6.8-1 8.3l-.6 1-.2-.8zm29-11c-.7-.5-1-1.4-1.2-2.3l-.2-1.5 2.2-1.7C78 8 80.8 6.3 85.4 4l4.2-2v1c0 1 0 1.3-1 1.8-1.8.8-14 7.2-14.6 7.8-.6.3-.6.5.6 1.8 1 1 1.2 1.5 1 2-.6.7-1 .7-2-.3zm-13-7c.4-1 1.5-2 6-4.3L73 1.3 75.4 0v1c0 1-.2 1-3.7 3L65 7.4c-4.5 2.8-4.3 2.7-4 1.6zM24 5.4c-.6-1-.7-2 0-3 .6-1 .6-1 .8-.3.3 1 1.6 1 2.4 0 .5-.5.6-.5 1 0 .6.5 1.5.5 2 0 .6-.6.6.4 0 1.5-.3 1-.7 1-2 1h-1.3c-1 .8-2.5 1.2-2.8.8z"/></svg>